<?xml version="1.0" encoding="UTF-8"?><svg xmlns="http://www.w3.org/2000/svg" xmlns:xlink="http://www.w3.org/1999/xlink" contentScriptType="text/ecmascript" width="810" zoomAndPan="magnify" contentStyleType="text/css" viewBox="0 0 810 809.999993" height="809.999993" preserveAspectRatio="xMidYMid meet" version="1.0"><path fill="rgb(100%, 8.628845%, 8.628845%)" d="M 406.59375 32.046875 C 400.515625 32.046875 394.441406 32.199219 388.371094 32.496094 C 382.300781 32.792969 376.242188 33.242188 370.195312 33.835938 C 364.148438 34.433594 358.117188 35.175781 352.105469 36.066406 C 346.09375 36.960938 340.105469 38 334.144531 39.183594 C 328.1875 40.371094 322.257812 41.703125 316.363281 43.179688 C 310.464844 44.65625 304.609375 46.273438 298.796875 48.039062 C 292.980469 49.804688 287.210938 51.710938 281.488281 53.757812 C 275.765625 55.804688 270.097656 57.992188 264.480469 60.316406 C 258.867188 62.640625 253.3125 65.105469 247.820312 67.703125 C 242.324219 70.300781 236.898438 73.03125 231.539062 75.898438 C 226.179688 78.761719 220.890625 81.757812 215.679688 84.882812 C 210.464844 88.007812 205.332031 91.257812 200.28125 94.632812 C 195.226562 98.011719 190.257812 101.507812 185.378906 105.128906 C 180.496094 108.75 175.707031 112.488281 171.007812 116.34375 C 166.308594 120.199219 161.710938 124.167969 157.207031 128.25 C 152.703125 132.328125 148.304688 136.519531 144.003906 140.816406 C 139.707031 145.113281 135.519531 149.515625 131.4375 154.019531 C 127.355469 158.519531 123.386719 163.121094 119.53125 167.820312 C 115.675781 172.515625 111.9375 177.308594 108.316406 182.1875 C 104.699219 187.070312 101.199219 192.039062 97.824219 197.089844 C 94.445312 202.144531 91.195312 207.277344 88.070312 212.488281 C 84.945312 217.703125 81.953125 222.988281 79.085938 228.347656 C 76.222656 233.710938 73.492188 239.136719 70.890625 244.628906 C 68.292969 250.125 65.832031 255.679688 63.503906 261.292969 C 61.179688 266.910156 58.992188 272.578125 56.945312 278.300781 C 54.898438 284.019531 52.992188 289.789062 51.226562 295.605469 C 49.464844 301.421875 47.84375 307.277344 46.367188 313.171875 C 44.890625 319.070312 43.558594 324.996094 42.375 330.957031 C 41.1875 336.917969 40.148438 342.90625 39.257812 348.917969 C 38.367188 354.929688 37.621094 360.957031 37.027344 367.007812 C 36.429688 373.054688 35.984375 379.113281 35.683594 385.183594 C 35.386719 391.253906 35.238281 397.328125 35.238281 403.40625 C 35.238281 409.484375 35.386719 415.558594 35.683594 421.628906 C 35.984375 427.699219 36.429688 433.757812 37.027344 439.804688 C 37.621094 445.851562 38.367188 451.882812 39.257812 457.894531 C 40.148438 463.90625 41.1875 469.894531 42.375 475.855469 C 43.558594 481.8125 44.890625 487.742188 46.367188 493.636719 C 47.84375 499.535156 49.464844 505.390625 51.226562 511.203125 C 52.992188 517.019531 54.898438 522.789062 56.945312 528.511719 C 58.992188 534.234375 61.179688 539.902344 63.503906 545.515625 C 65.832031 551.132812 68.292969 556.6875 70.890625 562.179688 C 73.492188 567.675781 76.222656 573.101562 79.085938 578.460938 C 81.953125 583.820312 84.945312 589.109375 88.070312 594.320312 C 91.195312 599.535156 94.445312 604.667969 97.824219 609.71875 C 101.199219 614.773438 104.699219 619.742188 108.316406 624.621094 C 111.9375 629.503906 115.675781 634.292969 119.53125 638.992188 C 123.386719 643.691406 127.355469 648.289062 131.4375 652.792969 C 135.519531 657.296875 139.707031 661.695312 144.003906 665.996094 C 148.304688 670.292969 152.703125 674.480469 157.207031 678.5625 C 161.710938 682.644531 166.308594 686.613281 171.007812 690.46875 C 175.707031 694.324219 180.496094 698.0625 185.378906 701.683594 C 190.257812 705.300781 195.226562 708.800781 200.28125 712.175781 C 205.332031 715.554688 210.464844 718.804688 215.679688 721.929688 C 220.890625 725.054688 226.179688 728.046875 231.539062 730.914062 C 236.898438 733.777344 242.324219 736.507812 247.820312 739.109375 C 253.3125 741.707031 258.867188 744.167969 264.480469 746.496094 C 270.097656 748.820312 275.765625 751.007812 281.488281 753.054688 C 287.210938 755.101562 292.980469 757.007812 298.796875 758.773438 C 304.609375 760.535156 310.464844 762.15625 316.363281 763.632812 C 322.257812 765.109375 328.1875 766.441406 334.144531 767.625 C 340.105469 768.8125 346.09375 769.851562 352.105469 770.742188 C 358.117188 771.632812 364.148438 772.378906 370.195312 772.972656 C 376.242188 773.570312 382.300781 774.015625 388.371094 774.316406 C 394.441406 774.613281 400.515625 774.761719 406.59375 774.761719 C 412.671875 774.761719 418.746094 774.613281 424.816406 774.316406 C 430.886719 774.015625 436.945312 773.570312 442.992188 772.972656 C 449.042969 772.378906 455.070312 771.632812 461.082031 770.742188 C 467.09375 769.851562 473.082031 768.8125 479.042969 767.625 C 485.003906 766.441406 490.929688 765.109375 496.828125 763.632812 C 502.722656 762.15625 508.578125 760.535156 514.394531 758.773438 C 520.210938 757.007812 525.976562 755.101562 531.699219 753.054688 C 537.421875 751.007812 543.089844 748.820312 548.707031 746.496094 C 554.320312 744.167969 559.875 741.707031 565.371094 739.109375 C 570.863281 736.507812 576.289062 733.777344 581.652344 730.914062 C 587.011719 728.046875 592.296875 725.054688 597.511719 721.929688 C 602.722656 718.804688 607.855469 715.554688 612.910156 712.175781 C 617.960938 708.800781 622.929688 705.300781 627.8125 701.683594 C 632.691406 698.0625 637.484375 694.324219 642.179688 690.46875 C 646.878906 686.613281 651.480469 682.644531 655.980469 678.5625 C 660.484375 674.480469 664.886719 670.292969 669.183594 665.996094 C 673.480469 661.695312 677.671875 657.296875 681.75 652.792969 C 685.832031 648.289062 689.800781 643.691406 693.65625 638.992188 C 697.511719 634.292969 701.25 629.503906 704.871094 624.621094 C 708.492188 619.742188 711.988281 614.773438 715.367188 609.71875 C 718.742188 604.667969 721.992188 599.535156 725.117188 594.320312 C 728.242188 589.109375 731.238281 583.820312 734.101562 578.460938 C 736.964844 573.101562 739.699219 567.675781 742.296875 562.179688 C 744.894531 556.6875 747.359375 551.132812 749.683594 545.515625 C 752.007812 539.902344 754.195312 534.234375 756.242188 528.511719 C 758.289062 522.789062 760.195312 517.019531 761.960938 511.203125 C 763.726562 505.390625 765.34375 499.535156 766.820312 493.636719 C 768.296875 487.742188 769.628906 481.8125 770.816406 475.855469 C 772 469.894531 773.039062 463.90625 773.933594 457.894531 C 774.824219 451.882812 775.566406 445.851562 776.164062 439.804688 C 776.757812 433.757812 777.207031 427.699219 777.503906 421.628906 C 777.800781 415.558594 777.953125 409.484375 777.953125 403.40625 C 777.953125 397.328125 777.800781 391.253906 777.503906 385.183594 C 777.207031 379.113281 776.757812 373.054688 776.164062 367.007812 C 775.566406 360.957031 774.824219 354.929688 773.933594 348.917969 C 773.039062 342.90625 772 336.917969 770.816406 330.957031 C 769.628906 324.996094 768.296875 319.070312 766.820312 313.171875 C 765.34375 307.277344 763.726562 301.421875 761.960938 295.605469 C 760.195312 289.789062 758.289062 284.019531 756.242188 278.300781 C 754.195312 272.578125 752.007812 266.910156 749.683594 261.292969 C 747.359375 255.679688 744.894531 250.125 742.296875 244.628906 C 739.699219 239.136719 736.964844 233.710938 734.101562 228.347656 C 731.238281 222.988281 728.242188 217.703125 725.117188 212.488281 C 721.992188 207.277344 718.742188 202.144531 715.367188 197.089844 C 711.988281 192.039062 708.492188 187.070312 704.871094 182.1875 C 701.25 177.308594 697.511719 172.515625 693.65625 167.820312 C 689.800781 163.121094 685.832031 158.519531 681.75 154.019531 C 677.671875 149.515625 673.480469 145.113281 669.183594 140.816406 C 664.886719 136.519531 660.484375 132.328125 655.980469 128.25 C 651.480469 124.167969 646.878906 120.199219 642.179688 116.34375 C 637.484375 112.488281 632.691406 108.75 627.8125 105.128906 C 622.929688 101.507812 617.960938 98.011719 612.910156 94.632812 C 607.855469 91.257812 602.722656 88.007812 597.511719 84.882812 C 592.296875 81.757812 587.011719 78.761719 581.652344 75.898438 C 576.289062 73.03125 570.863281 70.300781 565.371094 67.703125 C 559.875 65.105469 554.320312 62.640625 548.707031 60.316406 C 543.089844 57.992188 537.421875 55.804688 531.699219 53.757812 C 525.980469 51.710938 520.210938 49.804688 514.394531 48.039062 C 508.578125 46.273438 502.722656 44.65625 496.828125 43.179688 C 490.929688 41.703125 485.003906 40.371094 479.042969 39.183594 C 473.082031 38 467.09375 36.960938 461.082031 36.066406 C 455.070312 35.175781 449.042969 34.433594 442.992188 33.835938 C 436.945312 33.242188 430.886719 32.792969 424.816406 32.496094 C 418.746094 32.199219 412.671875 32.046875 406.59375 32.046875 Z M 406.59375 32.046875 " fill-opacity="1" fill-rule="nonzero"/><path fill="rgb(100%, 100%, 100%)" d="M 376.425781 661.257812 C 278.453125 661.066406 189.828125 634.65625 125.789062 592.144531 C 183.636719 621.886719 256.277344 639.730469 335.261719 639.890625 C 524.253906 640.289062 677.667969 539.664062 677.941406 415.113281 C 678.160156 310.566406 570.351562 222.417969 423.933594 196.582031 C 597.527344 211.960938 731.394531 310.078125 731.144531 428.601562 C 730.871094 557.523438 572.058594 661.6875 376.425781 661.257812 Z M 376.425781 661.257812 " fill-opacity="1" fill-rule="nonzero"/><path fill="rgb(100%, 100%, 100%)" d="M 294.210938 179.332031 C 317.773438 170.25 330.902344 129.933594 309.484375 108.226562 C 302.363281 101.03125 276.839844 98.671875 260.609375 130.964844 C 244.375 163.257812 270.621094 188.414062 294.210938 179.332031 Z M 520.28125 448.65625 C 473.769531 360.96875 473.253906 193.871094 345.699219 189.917969 C 218.140625 185.96875 128.839844 375.460938 128.839844 375.460938 C 128.839844 375.460938 230.273438 232.402344 306.179688 262.113281 C 319.550781 267.347656 329.851562 295.921875 315.1875 321.253906 C 286.449219 370.90625 206.238281 390.488281 206.238281 390.488281 C 206.238281 390.488281 293.628906 391.828125 338.703125 354.582031 C 363.359375 334.203125 370.839844 304.582031 377.378906 305.242188 C 383.910156 305.894531 398.023438 326.519531 394.679688 340.511719 C 388.34375 366.996094 321.71875 348.050781 303.765625 419.582031 C 285.800781 491.125 426.691406 587.472656 426.691406 587.472656 C 426.691406 587.472656 332.820312 443.6875 375.285156 424.488281 C 422.960938 402.933594 437.085938 452.269531 493.5 506.148438 C 580.375 589.121094 660.851562 558.394531 660.851562 558.394531 C 660.851562 558.394531 582.992188 566.917969 520.28125 448.65625 Z M 520.28125 448.65625 " fill-opacity="1" fill-rule="nonzero"/><path fill="rgb(100%, 100%, 100%)" d="M 82.210938 450.234375 C 82.210938 468.902344 97.34375 484.046875 116.015625 484.046875 C 134.6875 484.046875 149.8125 468.902344 149.8125 450.234375 C 149.8125 431.554688 134.6875 416.421875 116.015625 416.421875 C 97.34375 416.421875 82.210938 431.554688 82.210938 450.234375 Z M 82.210938 450.234375 " fill-opacity="1" fill-rule="nonzero"/></svg>